<svg width="24" height="24" viewBox="0 0 24 24" fill="none" xmlns="http://www.w3.org/2000/svg">
<path d="M11.016 19.6873C9.25263 11.8075 16.3705 9.16093 20.1359 8.95427L21.3757 11.7783L18.2072 15.2223L18.6894 19.424L17.174 21.697L15.7276 21.2837L11.016 19.6873Z" fill="#D7D9E6"/>
<path d="M10.1277 4.67C10.8936 3.11827 13.1064 3.11827 13.8723 4.67L15.2227 7.40564C15.5265 8.02128 16.1137 8.44819 16.793 8.54748L19.8161 8.98936C21.5281 9.23959 22.2104 11.344 20.971 12.5511L18.7867 14.6786C18.2942 15.1583 18.0694 15.8497 18.1857 16.5273L18.7007 19.5304C18.9933 21.2362 17.2027 22.537 15.6709 21.7314L12.9719 20.312C12.3635 19.992 11.6365 19.992 11.0281 20.312L8.32909 21.7314C6.79728 22.537 5.00672 21.2362 5.29929 19.5304L5.81435 16.5273C5.93057 15.8497 5.70577 15.1583 5.21327 14.6786L3.029 12.5511C1.78959 11.344 2.47191 9.23959 4.18388 8.98936L7.20701 8.54748C7.88635 8.44819 8.47346 8.02128 8.77735 7.40564L10.1277 4.67Z" stroke="black" stroke-width="1.044" stroke-linecap="round" stroke-linejoin="round"/>
</svg>
