<svg width="20" height="25" viewBox="0 0 20 25" fill="none" xmlns="http://www.w3.org/2000/svg">
<rect x="2.75684" y="17.0965" width="14.4003" height="6.163" fill="#D7D9E6"/>
<path d="M13.3136 9.00305C13.0032 9.00305 12.7516 9.25466 12.7516 9.56511V20.1881C12.7516 20.4983 13.0032 20.7501 13.3136 20.7501C13.6241 20.7501 13.8757 20.4983 13.8757 20.1881V9.56511C13.8757 9.25466 13.6241 9.00305 13.3136 9.00305Z" fill="black"/>
<path d="M6.68193 9.00305C6.37148 9.00305 6.11987 9.25466 6.11987 9.56511V20.1881C6.11987 20.4983 6.37148 20.7501 6.68193 20.7501C6.99238 20.7501 7.24399 20.4983 7.24399 20.1881V9.56511C7.24399 9.25466 6.99238 9.00305 6.68193 9.00305Z" fill="black"/>
<path d="M1.84805 7.45268V21.3006C1.84805 22.1191 2.14818 22.8878 2.67248 23.4393C3.19436 23.9924 3.92064 24.3063 4.68074 24.3076H15.3151C16.0754 24.3063 16.8017 23.9924 17.3233 23.4393C17.8476 22.8878 18.1478 22.1191 18.1478 21.3006V7.45268C19.19 7.17604 19.8653 6.16916 19.7259 5.09972C19.5863 4.03049 18.6754 3.23065 17.5969 3.23043H14.7192V2.52786C14.7225 1.93703 14.4889 1.36971 14.0706 0.952333C13.6524 0.53518 13.0842 0.302891 12.4934 0.307722H7.50245C6.91163 0.302891 6.34342 0.53518 5.92517 0.952333C5.50692 1.36971 5.27332 1.93703 5.27661 2.52786V3.23043H2.39891C1.32046 3.23065 0.409529 4.03049 0.269892 5.09972C0.130475 6.16916 0.805824 7.17604 1.84805 7.45268V7.45268ZM15.3151 23.1835H4.68074C3.71975 23.1835 2.97217 22.358 2.97217 21.3006V7.50208H17.0236V21.3006C17.0236 22.358 16.2761 23.1835 15.3151 23.1835ZM6.40073 2.52786C6.397 2.23519 6.51204 1.9535 6.71974 1.7469C6.92722 1.5403 7.20957 1.42679 7.50245 1.43184H12.4934C12.7862 1.42679 13.0686 1.5403 13.2761 1.7469C13.4838 1.95328 13.5988 2.23519 13.5951 2.52786V3.23043H6.40073V2.52786ZM2.39891 4.35455H17.5969C18.1557 4.35455 18.6086 4.80749 18.6086 5.36625C18.6086 5.92502 18.1557 6.37796 17.5969 6.37796H2.39891C1.84014 6.37796 1.3872 5.92502 1.3872 5.36625C1.3872 4.80749 1.84014 4.35455 2.39891 4.35455V4.35455Z" fill="black"/>
<path d="M9.99773 9.00305C9.68728 9.00305 9.43567 9.25466 9.43567 9.56511V20.1881C9.43567 20.4983 9.68728 20.7501 9.99773 20.7501C10.3082 20.7501 10.5598 20.4983 10.5598 20.1881V9.56511C10.5598 9.25466 10.3082 9.00305 9.99773 9.00305Z" fill="black"/>
</svg>
