<svg width="37" height="37" viewBox="0 0 37 37" fill="none" xmlns="http://www.w3.org/2000/svg">
<path fill-rule="evenodd" clip-rule="evenodd" d="M18.2078 0.488846C28.147 0.488846 36.2078 8.54965 36.2078 18.4888C36.2078 28.428 28.147 36.4888 18.2078 36.4888C8.26856 36.4888 0.207764 28.428 0.207764 18.4888C0.207764 8.54965 8.26856 0.488846 18.2078 0.488846ZM14.3078 14.998C10.7015 15.3309 9.45936 16.7293 2.99536 16.8137C3.82972 9.14969 10.3234 3.18249 18.2094 3.18249C26.161 3.18249 32.6986 9.24969 33.4438 17.0061C27.0642 16.9295 25.7486 15.5764 22.2906 15.2092C23.0124 16.1061 23.4437 17.2451 23.4437 18.4873C23.4437 19.7951 22.964 20.9889 22.1734 21.9061C25.7156 21.5576 26.989 20.178 33.4298 20.0983C32.6735 27.3219 26.8922 33.0515 19.6438 33.7263C19.7172 27.3639 21.0578 26.0279 21.4344 22.6107C20.5453 23.3076 19.425 23.7232 18.2078 23.7232C16.8782 23.7232 15.6656 23.2278 14.7422 22.4107C15.0875 25.9732 16.475 27.2387 16.5531 33.7043C9.34512 32.9293 3.63432 27.1463 2.96872 19.9059C9.31392 19.9856 10.6407 21.3293 14.0735 21.6996C13.3844 20.8121 12.972 19.6981 12.972 18.4872C12.972 17.1465 13.4766 15.9231 14.3063 14.9965L14.3078 14.998Z" fill="#623CE7"/>
<path fill-rule="evenodd" clip-rule="evenodd" d="M18.2103 14.9169C20.1837 14.9169 21.7837 16.5169 21.7837 18.4887C21.7837 20.4622 20.1837 22.0622 18.2103 22.0622C16.2369 22.0622 14.6384 20.4622 14.6384 18.4887C14.6384 16.5153 16.2384 14.9169 18.2103 14.9169ZM20.2009 18.4903C20.2009 17.3872 19.3119 16.4997 18.2103 16.4997C17.1072 16.4997 16.2197 17.3887 16.2197 18.4903C16.2197 19.5934 17.1087 20.4809 18.2103 20.4809C19.3134 20.4809 20.2009 19.5919 20.2009 18.4903Z" fill="#FF2F5E"/>
</svg>
