<svg width="37" height="36" viewBox="0 0 37 36" fill="none" xmlns="http://www.w3.org/2000/svg">
<path d="M27.1838 9V10.5H30.1838V9C30.1838 4.0365 26.1473 0 21.1838 0H19.6838V3H21.1838C24.4928 3 27.1838 5.691 27.1838 9Z" fill="#FF4267"/>
<path d="M9.18384 27V25.5H6.18384V27C6.18384 31.9635 10.2203 36 15.1838 36H16.6838V33H15.1838C11.8748 33 9.18384 30.309 9.18384 27Z" fill="#FF4267"/>
<path d="M13.6838 0H3.18384C1.52634 0 0.183838 1.3425 0.183838 3V19.5C0.183838 21.1575 1.52634 22.5 3.18384 22.5H13.6838C15.3413 22.5 16.6838 21.1575 16.6838 19.5V3C16.6838 1.3425 15.3413 0 13.6838 0ZM13.6838 18H3.18384V4.5H13.6838V18Z" fill="#623CE7"/>
<path d="M33.1838 13.5H22.6838C21.0263 13.5 19.6838 14.8425 19.6838 16.5V33C19.6838 34.6575 21.0263 36 22.6838 36H33.1838C34.8413 36 36.1838 34.6575 36.1838 33V16.5C36.1838 14.8425 34.8413 13.5 33.1838 13.5ZM33.1838 31.5H22.6838V18H33.1838V31.5Z" fill="#623CE7"/>
</svg>
