<svg width="37" height="36" viewBox="0 0 37 36" fill="none" xmlns="http://www.w3.org/2000/svg">
<rect x="0.689941" width="19.2" height="19.2" fill="#FF4267"/>
<path d="M0.689941 1.5V34.5C0.689941 34.8978 0.879584 35.2794 1.21715 35.5607C1.55471 35.842 2.01255 36 2.48994 36H34.8899C35.3673 36 35.8252 35.842 36.1627 35.5607C36.5003 35.2794 36.6899 34.8978 36.6899 34.5V1.5C36.6899 1.10218 36.5003 0.720644 36.1627 0.43934C35.8252 0.158035 35.3673 0 34.8899 0L2.48994 0C2.01255 0 1.55471 0.158035 1.21715 0.43934C0.879584 0.720644 0.689941 1.10218 0.689941 1.5ZM6.08994 7.5H16.8899V16.5H6.08994V7.5ZM31.2899 28.5H6.08994V25.5H18.6899H31.2899V28.5ZM31.2899 22.5H6.08994V19.5H31.2899V22.5ZM31.2899 16.5H20.4899V13.5H31.2899V16.5ZM31.2899 10.5H20.4899V7.5H31.2899V10.5Z" fill="#623CE7"/>
</svg>
