<svg width="39" height="36" viewBox="0 0 39 36" fill="none" xmlns="http://www.w3.org/2000/svg">
<path fill-rule="evenodd" clip-rule="evenodd" d="M31.1064 8.38141C30.9799 8.25486 30.8111 8.18404 30.6318 8.18404C30.4525 8.18404 30.2838 8.25485 30.1572 8.38141L29.5727 8.96445C29.312 9.2266 29.312 9.65298 29.5727 9.91359L31.6216 11.9626C31.8853 12.2247 32.3102 12.2232 32.5708 11.9626L33.1553 11.3795C33.416 11.1174 33.416 10.6925 33.1553 10.4304L31.1064 8.38141Z" fill="#623CE7"/>
<path fill-rule="evenodd" clip-rule="evenodd" d="M34.0662 12.2864L33.4832 12.8694C33.1141 13.2386 32.6214 13.4435 32.0986 13.4435C31.5758 13.4435 31.0847 13.2386 30.7156 12.8694L28.6666 10.822C28.2975 10.4514 28.0941 9.96019 28.0941 9.43743C28.0941 8.91463 28.2975 8.4235 28.6666 8.05439L29.2512 7.47135C29.9894 6.7316 31.2776 6.7316 32.0173 7.47135L34.0663 9.51881C34.4354 9.88944 34.6388 10.3806 34.6388 10.9034C34.6388 11.4261 34.4354 11.9173 34.0663 12.2864H34.0662ZM37.4365 8.04537L33.5102 4.11906C31.9238 2.53261 29.3413 2.53411 27.7581 4.11906L19.924 11.952C18.3375 13.5385 18.3375 16.1194 19.924 17.7057L23.8503 21.632C24.6443 22.426 25.6853 22.8222 26.7279 22.8222C27.7689 22.8222 28.8115 22.4245 29.6039 21.632L37.4369 13.8006C39.0233 12.2142 39.0233 9.6317 37.4369 8.04537" fill="#623CE7"/>
<path fill-rule="evenodd" clip-rule="evenodd" d="M19.974 18.6333C19.8504 18.5113 19.6787 18.448 19.5084 18.445C19.3337 18.448 19.1695 18.5219 19.0504 18.6484L15.9935 22.0111C15.8519 22.1618 15.7917 22.3727 15.8323 22.5761L16.1322 24.0722L14.6346 23.7723C14.4237 23.7317 14.2067 23.7964 14.0546 23.9486L10.3107 27.6925C10.1585 27.8447 10.0937 28.0616 10.1344 28.2725L10.2715 28.955L9.58904 28.8194C9.37812 28.7772 9.15966 28.842 9.0075 28.9942L8.69865 29.303C7.32765 30.674 6.3544 32.393 5.88432 34.2749C5.7653 34.7525 5.9009 35.2452 6.24892 35.5932C6.51408 35.8584 6.86363 36 7.22671 36C7.33971 36 7.45421 35.9864 7.5672 35.9578C9.44894 35.4877 11.1664 34.513 12.5391 33.142L15.2901 30.3924C15.4408 30.2403 15.5071 30.0218 15.4649 29.8109L15.3293 29.1299L16.0103 29.2655C16.2272 29.3062 16.4487 29.2399 16.6009 29.0817L22.9134 22.4633C23.156 22.2102 23.1515 21.811 22.9044 21.5639L19.974 18.6333Z" fill="#623CE7"/>
<path fill-rule="evenodd" clip-rule="evenodd" d="M19.9856 1.28666C20.3412 1.28666 20.6289 0.998898 20.6289 0.643328C20.6289 0.287758 20.3412 0 19.9856 0C8.81106 0 0.0578613 9.03667 0.0578613 20.5711C0.0578613 20.9266 0.345619 21.2129 0.701189 21.2129C1.05676 21.2129 1.34452 20.9266 1.34452 20.5711C1.34452 9.75675 9.53152 1.28666 19.9856 1.28666" fill="#FF2F5E"/>
<path fill-rule="evenodd" clip-rule="evenodd" d="M19.9883 4.50012C20.3438 4.50012 20.6316 4.21236 20.6316 3.85679C20.6316 3.50122 20.3438 3.21497 19.9883 3.21497C10.6172 3.21497 3.27563 10.8385 3.27563 20.5709C3.27563 20.9265 3.56189 21.2128 3.91746 21.2128C4.27303 21.2128 4.56079 20.9265 4.56079 20.5709C4.56079 11.5586 11.3373 4.50008 19.9883 4.50008" fill="#FF2F5E"/>
<path fill-rule="evenodd" clip-rule="evenodd" d="M19.9869 6.42997C12.5443 6.42997 6.48779 12.7742 6.48779 20.5724C6.48779 20.9279 6.77555 21.2142 7.13112 21.2142C7.48517 21.2142 7.77294 20.928 7.77294 20.5724C7.77294 13.4823 13.2524 7.71508 19.9869 7.71508C20.3425 7.71508 20.6302 7.42883 20.6302 7.07326C20.6302 6.71769 20.3425 6.42993 19.9869 6.42993" fill="#FF2F5E"/>
</svg>
