<svg width="28" height="36" viewBox="0 0 28 36" fill="none" xmlns="http://www.w3.org/2000/svg">
<path d="M22.678 0H4.67798C3.4845 0 2.33991 0.474106 1.496 1.31802C0.652084 2.16193 0.177979 3.30653 0.177979 4.5V31.5C0.177979 32.6935 0.652084 33.8381 1.496 34.682C2.33991 35.5259 3.4845 36 4.67798 36H22.678C23.8715 36 25.016 35.5259 25.86 34.682C26.7039 33.8381 27.178 32.6935 27.178 31.5V4.5C27.178 3.30653 26.7039 2.16193 25.86 1.31802C25.016 0.474106 23.8715 0 22.678 0V0ZM24.178 30C24.178 30.3978 24.0199 30.7794 23.7386 31.0607C23.4573 31.342 23.0758 31.5 22.678 31.5H4.67798C4.28015 31.5 3.89862 31.342 3.61732 31.0607C3.33601 30.7794 3.17798 30.3978 3.17798 30V6C3.17798 5.60218 3.33601 5.22064 3.61732 4.93934C3.89862 4.65804 4.28015 4.5 4.67798 4.5H22.678C23.0758 4.5 23.4573 4.65804 23.7386 4.93934C24.0199 5.22064 24.178 5.60218 24.178 6V30Z" fill="#623CE7"/>
<path d="M18.9971 18.873C18.005 17.9489 16.8207 17.2558 15.5291 16.8435L14.5271 16.461V11.661C15.9397 11.7778 17.3267 12.1064 18.6416 12.636L19.6031 10.224C17.9892 9.5644 16.2698 9.20061 14.5271 9.15V6.9645H12.7781V9.177C11.3836 9.25913 10.0452 9.75469 8.93356 10.6005C8.48143 10.9568 8.1182 11.4133 7.87248 11.9338C7.62676 12.4544 7.50527 13.025 7.51756 13.6005C7.48587 14.6407 7.8401 15.6558 8.51206 16.4505C9.38631 17.3564 10.4672 18.0369 11.6621 18.4335L12.7706 18.843V23.7735C11.8532 23.7478 10.9418 23.6175 10.0541 23.385C9.14042 23.1687 8.25203 22.857 7.40356 22.455V25.2405C9.10664 25.9332 10.9323 26.274 12.7706 26.2425V29.0205H14.5226V26.16C15.9936 26.0802 17.4035 25.5456 18.5576 24.63C19.0109 24.2421 19.3722 23.7582 19.6153 23.2134C19.8584 22.6686 19.9772 22.0764 19.9631 21.48C19.987 20.5193 19.6412 19.5861 18.9971 18.873V18.873ZM12.7676 15.81C12.1406 15.6016 11.5638 15.265 11.0741 14.8215C10.7585 14.4823 10.5898 14.0321 10.6046 13.569C10.6011 13.3386 10.6489 13.1102 10.7447 12.9006C10.8404 12.691 10.9816 12.5053 11.1581 12.357C11.6218 11.9923 12.1803 11.7679 12.7676 11.7105V15.81ZM14.5196 23.6625V19.4625C15.1687 19.6658 15.7744 19.9877 16.3061 20.412C16.4808 20.571 16.619 20.7659 16.7112 20.9834C16.8034 21.201 16.8474 21.4359 16.8401 21.672C16.8421 22.761 16.0686 23.4245 14.5196 23.6625V23.6625Z" fill="#FF2F5E"/>
</svg>
