<svg width="21" height="31" viewBox="0 0 21 31" fill="none" xmlns="http://www.w3.org/2000/svg">
<path d="M7.2332 2.89364H13.0204C13.8215 2.89364 14.4672 2.24795 14.4672 1.44682C14.4672 0.645691 13.8215 0 13.0204 0H7.2332C6.43207 0 5.78638 0.645691 5.78638 1.44682C5.78638 2.24795 6.43804 2.89364 7.2332 2.89364Z" fill="#623CE7"/>
<path d="M17.3618 4.34085H2.89361C1.29735 4.34085 0 5.6382 0 7.23446V27.4837C0 29.08 1.29735 30.3773 2.89361 30.3773H17.3618C18.9581 30.3773 20.2554 29.08 20.2554 27.4837V7.23446C20.2494 5.6382 18.9521 4.34085 17.3618 4.34085V4.34085ZM2.89361 27.4779V7.23443H17.3618V27.4837H2.89361V27.4779Z" fill="#623CE7"/>
<path d="M13.8927 15.9139H12.0932C11.7763 15.9139 11.5192 15.6569 11.5192 15.34V9.22408C11.5192 8.6322 10.742 8.42295 10.4491 8.93711L5.86366 17.935C5.64245 18.3176 5.92344 18.7959 6.35988 18.7959H8.07574C8.39261 18.7959 8.64968 19.053 8.64968 19.3698V25.4202C8.64968 26.0121 9.4269 26.2214 9.71984 25.7072L14.383 16.7751C14.6042 16.3925 14.3292 15.9142 13.8927 15.9142L13.8927 15.9139Z" fill="#FF2F5E"/>
</svg>
